<?xml version="1.0" encoding="utf-8"?>
<svg version="1.1" width="400" height="400" viewBox="99.768 99.954 200.447 200.041" xmlns="http://www.w3.org/2000/svg">
  <desc>Created with Fabric.js 3.6.2</desc>
  <g transform="matrix(0.39 0 0 0.39 200 200)" id="Layer_1">
    <path style="stroke: none; stroke-width: 1; stroke-dasharray: none; stroke-linecap: butt; stroke-dashoffset: 0; stroke-linejoin: miter; stroke-miterlimit: 4; fill: rgb(21,126,251); fill-rule: nonzero; opacity: 1;" transform=" translate(-256, -256)" d="M 512 395.1 c 0 64.6 -52.3 116.9 -116.9 116.9 H 116.9 C 52.3 512 0 459.7 0 395.1 V 117 C 0 52.4 52.4 0 117 0 h 276.3 C 458.9 0 512 53.1 512 118.7 V 395.1 z" stroke-linecap="round"/>
  </g>
  <g transform="matrix(0.39 0 0 0.39 199.96 200)" id="Layer_1">
    <path style="stroke: none; stroke-width: 1; stroke-dasharray: none; stroke-linecap: butt; stroke-dashoffset: 0; stroke-linejoin: miter; stroke-miterlimit: 4; fill: rgb(255,255,255); fill-rule: nonzero; opacity: 1;" transform=" translate(-255.9, -256)" d="M 327.2 70.6 H 184.8 c -63.1 0 -114.3 51.2 -114.3 114.3 v 142.3 c 0 63.1 51.1 114.2 114.3 114.2 h 142.3 c 63.1 0 114.2 -51.1 114.2 -114.2 V 184.9 C 441.4 121.7 390.3 70.6 327.2 70.6 z M 405.8 313.5 c 0 51 -41.3 92.3 -92.3 92.3 h -115 c -51 0 -92.3 -41.3 -92.3 -92.3 v -115 c 0 -51 41.3 -92.3 92.3 -92.3 h 115 c 51 0 92.3 41.4 92.3 92.3 V 313.5 z" stroke-linecap="round"/>
  </g>
  <g transform="matrix(0.39 0 0 0.39 201.95 200.27)" id="Layer_1">
    <path style="stroke: none; stroke-width: 1; stroke-dasharray: none; stroke-linecap: butt; stroke-dashoffset: 0; stroke-linejoin: miter; stroke-miterlimit: 4; fill: rgb(255,255,255); fill-rule: nonzero; opacity: 1;" transform=" translate(-261, -256.7)" d="M 261 159 c -54 0 -97.7 43.7 -97.7 97.7 c 0 53.9 43.7 97.7 97.7 97.7 c 53.9 0 97.7 -43.7 97.7 -97.7 C 358.6 202.7 314.9 159 261 159 z M 261 315.4 c -32.5 0 -58.8 -26.3 -58.8 -58.8 c 0 -32.5 26.3 -58.8 58.8 -58.8 c 32.4 0 58.8 26.3 58.8 58.8 C 319.7 289.1 293.4 315.4 261 315.4 z" stroke-linecap="round"/>
  </g>
  <g transform="matrix(0.39 0 0 0.39 237.46 161.5)" id="Layer_1">
    <path style="stroke: none; stroke-width: 1; stroke-dasharray: none; stroke-linecap: butt; stroke-dashoffset: 0; stroke-linejoin: miter; stroke-miterlimit: 4; fill: rgb(255,255,255); fill-rule: nonzero; opacity: 1;" transform=" translate(-351.9, -157.45)" d="M 376.7 157.5 c 0 13.7 -11.1 24.8 -24.8 24.8 c -13.7 0 -24.8 -11.1 -24.8 -24.8 c 0 -13.7 11.1 -24.9 24.8 -24.9 C 365.6 132.6 376.7 143.7 376.7 157.5 z" stroke-linecap="round"/>
  </g>
</svg>