<?xml version="1.0" encoding="utf-8"?>
<svg version="1.1" width="400" height="400" viewBox="100.028 99.805 200.205 200.448" xmlns="http://www.w3.org/2000/svg">
  <desc>Created with Fabric.js 3.6.2</desc>
  <g transform="matrix(0.4 0 0 0.4 200 200)" id="rect2995">
    <path style="stroke: none; stroke-width: 1; stroke-dasharray: none; stroke-linecap: butt; stroke-dashoffset: 0; stroke-linejoin: miter; stroke-miterlimit: 4; fill: rgb(21,126,251); fill-rule: nonzero; opacity: 1;" transform=" translate(-250, -250)" d="M 50 0 C 22.3 0 -9.483155e-17 22.3 0 50 L 0 450 C 0 477.7 22.3 500 50 500 L 450 500 C 477.7 500 500 477.7 500 450 L 500 50 C 500 22.3 477.7 -9.483155e-17 450 0 L 50 0 z M 79.0625 51.15625 L 422.46875 51.15625 C 438.13028 51.15625 450.75 63.775966 450.75 79.4375 L 450.75 422.96875 C 450.75 438.63028 438.13028 451.21875 422.46875 451.21875 L 79.0625 451.21875 C 63.400966 451.21875 50.8125 438.63028 50.8125 422.96875 L 50.8125 79.4375 C 50.8125 63.775966 63.400966 51.15625 79.0625 51.15625 z M 139.90625 105.78125 C 120.7241 105.78125 105.1875 121.31785 105.1875 140.5 C 105.1875 159.68215 120.7241 175.25 139.90625 175.25 C 159.0884 175.25 174.625 159.68215 174.625 140.5 C 174.625 121.31785 159.0884 105.78125 139.90625 105.78125 z M 321.78125 196.21875 C 317.85918 196.20478 314.04108 196.36776 309.0625 196.625 C 298.14378 197.18916 272.64946 208.99245 263.3125 227.84375 C 263.3125 219.65941 263.40625 212.15473 263.40625 200.9375 C 252.22212 200.9375 237.59851 201 207.03125 201 C 207.03125 235.25275 206.65625 356.56169 206.65625 391.90625 L 265.84375 391.90625 C 265.84375 370.93882 266.125 318.2611 266.125 285.1875 C 266.125 274.08181 272.84022 248.4375 300.4375 248.4375 C 325.49621 248.4375 332.53125 269.51509 332.53125 285.1875 C 332.53125 319.63203 332.28125 368.33154 332.28125 391.90625 L 391.8125 391.90625 C 391.8125 368.8622 392.01925 306.27404 391.3125 266.78125 C 390.45438 218.82992 361.27754 198.36467 335.09375 196.75 C 329.70552 196.41773 325.70331 196.23272 321.78125 196.21875 z M 110.1875 201.75 L 110.1875 391.8125 L 169.53125 391.8125 L 169.53125 201.75 L 110.1875 201.75 z" stroke-linecap="round"/>
  </g>
</svg>