<?xml version="1.0" encoding="utf-8"?>
<svg version="1.1" width="400" height="400" viewBox="100.031 91.165 200.149 216.957" xmlns="http://www.w3.org/2000/svg">
  <desc>Created with Fabric.js 3.6.2</desc>
  <g transform="matrix(8 0 0 8 200 200)" id="mail-envelope-open">
    <path style="stroke: none; stroke-width: 1; stroke-dasharray: none; stroke-linecap: butt; stroke-dashoffset: 0; stroke-linejoin: miter; stroke-miterlimit: 4; fill: rgb(21,126,251); fill-rule: evenodd; opacity: 1;" transform=" translate(-16.5, -16.5)" d="M 20.6381516 20 L 18.4205694 21.9827889 L 18.5199469 21.9822704 L 18.5199469 21.9822704 L 18.5 22.000001 L 15.1214931 22.000001 L 16.8181902 21.9911489 L 16.8181902 21.9911489 L 14.551004 21.9803099 L 12.3066528 20 L 20.6381516 20 L 20.6381516 20 Z M 21.7565673 19 L 25 16.0999756 L 25 8.00862577 C 25 7.45157714 24.5452911 7 24.0000398 7 L 8.9999602 7 C 8.44769743 7 8 7.44373571 8 8.00207596 L 8 16.2000122 L 11.1733195 19 L 21.7565673 19 L 21.7565673 19 Z M 13.0909091 6 L 16.5 3 L 19.9090909 6 L 24.0025781 6 C 25.1090746 6 26 6.89525812 26 7.99961498 L 26 11.36 L 29 14 L 29 28.0059397 C 29 29.1054862 28.10296 30 26.9964051 30 L 6.00359486 30 C 4.88976324 30 4 29.1072288 4 28.0059397 L 4 14 L 7 11.36 L 7 7.99961498 C 7 6.88743329 7.89427625 6 8.99742191 6 L 13.0909091 6 L 13.0909091 6 L 13.0909091 6 Z M 18.4278349 6 L 16.5 4.30000019 L 14.5721651 6 L 18.4278349 6 L 18.4278349 6 L 18.4278349 6 Z M 26 12.6772727 L 27.5 14 L 26 15.3333335 L 26 12.6772727 L 26 12.6772727 L 26 12.6772727 Z M 7 15.3333335 L 5.5 14 L 7 12.6772728 L 7 15.3333335 L 7 15.3333335 L 7 15.3333335 Z M 13.5 23 L 6.5 29 L 26.5 29 L 19.5 23 L 13.5 23 L 13.5 23 Z M 27.68514 28.7251701 L 20 22.0170898 L 28 15 L 28 21.5000199 L 28 28.0000398 C 28 28.2831537 27.8789949 28.5418569 27.68514 28.7251701 L 27.68514 28.7251701 L 27.68514 28.7251701 Z M 5.31486 28.7251701 L 13 22.0170898 L 5 15 L 5 21.5000199 L 5 28.0000398 C 5 28.2831537 5.12100514 28.5418569 5.31486 28.7251701 L 5.31486 28.7251701 L 5.31486 28.7251701 Z M 10 10 L 10 11 L 23 11 L 23 10 L 10 10 L 10 10 Z M 10 13 L 10 14 L 23 14 L 23 13 L 10 13 L 10 13 Z M 10 16 L 10 17 L 23 17 L 23 16 L 10 16 L 10 16 Z" stroke-linecap="round"/>
  </g>
</svg>